<?xml version="1.0" encoding="UTF-8" standalone="no"?>
<!-- Generator: Adobe Illustrator 25.2.3, SVG Export Plug-In . SVG Version: 6.00 Build 0)  -->

<svg
   version="1.1"
   id="Capa_1"
   x="0px"
   y="0px"
   width="50px"
   height="50px"
   viewBox="0 0 50 50"
   style="enable-background:new 0 0 50 50;"
   xml:space="preserve"
   sodipodi:docname="logo_m.svg"
   inkscape:version="1.1.2 (0a00cf5339, 2022-02-04)"
   xmlns:inkscape="http://www.inkscape.org/namespaces/inkscape"
   xmlns:sodipodi="http://sodipodi.sourceforge.net/DTD/sodipodi-0.dtd"
   xmlns="http://www.w3.org/2000/svg"
   xmlns:svg="http://www.w3.org/2000/svg"><defs
   id="defs10" /><sodipodi:namedview
   id="namedview8"
   pagecolor="#ffffff"
   bordercolor="#666666"
   borderopacity="1.0"
   inkscape:pageshadow="2"
   inkscape:pageopacity="0.0"
   inkscape:pagecheckerboard="0"
   showgrid="false"
   inkscape:snap-global="false"
   inkscape:zoom="11.05915"
   inkscape:cx="32.23575"
   inkscape:cy="22.42487"
   inkscape:window-width="1920"
   inkscape:window-height="1043"
   inkscape:window-x="0"
   inkscape:window-y="0"
   inkscape:window-maximized="1"
   inkscape:current-layer="Capa_1" />
<style
   type="text/css"
   id="style2">
	.st0{fill-rule:evenodd;clip-rule:evenodd;fill:#98D80B;}
</style>
<g
   id="Clip-16">
</g>
<g
   id="g852"
   transform="matrix(0.39811659,0,0,0.39811659,14.586671,21.967893)"><g
     id="g883"
     transform="matrix(0.95075758,0,0,0.95075758,-45.237927,-63.698123)"
     style="display:inline"><circle
       r="66"
       cy="75"
       cx="74.75"
       id="path864"
       style="opacity:0.99;fill:#0000ff;fill-opacity:1;stroke:none;stroke-width:0.36018;stroke-miterlimit:4;stroke-dasharray:none;stroke-opacity:0.299003" /><circle
       r="61.5"
       cy="75"
       cx="74.75"
       id="path864-0"
       style="display:inline;opacity:0.99;fill:#ffffff;fill-opacity:1;stroke:none;stroke-width:0.335622;stroke-miterlimit:4;stroke-dasharray:none;stroke-opacity:0.299003" /></g><path
     inkscape:connector-curvature="0"
     id="rect819-3-0"
     d="m 23.288829,-42.685295 -1.917227,3.194069 -45.353439,75.255121 h 3.017277 7.407646 73.691486 9.41917 1.00575 l -5.9049,-9.796325 -0.12965,-0.261262 h -0.0275 l -35.735909,-59.298517 0.02553,-0.04126 z m 0,18.023118 30.712973,50.368485 H -7.424139 Z"
     style="display:inline;fill:#000000;fill-opacity:1;stroke:none;stroke-width:1.00576;stroke-opacity:1" /><path
     inkscape:connector-curvature="0"
     id="rect819-6-8-5"
     d="m 28.932546,-42.702435 -5.360672,9.026269 -41.874519,69.445951 h 3.015013 7.402085 83.048289 L 56.782162,4.624166 51.819952,14.676455 c 0,0 3.27055,5.501342 6.60123,11.048892 H -1.757373 l 30.356228,-49.75532 12.992419,21.630871 5.721857,-9.157711 z"
     style="display:inline;fill:#0033a0;fill-opacity:1;stroke:none;stroke-width:1.00472;stroke-opacity:1" /></g>
</svg>
